<?xml version="1.0" standalone="no"?><!DOCTYPE svg PUBLIC "-//W3C//DTD SVG 1.1//EN" "http://www.w3.org/Graphics/SVG/1.1/DTD/svg11.dtd"><svg t="1512040582900" class="icon" style="" viewBox="0 0 4599 1024" version="1.1" xmlns="http://www.w3.org/2000/svg" p-id="32196" xmlns:xlink="http://www.w3.org/1999/xlink" width="143.71875" height="32"><defs><style type="text/css"></style></defs><path d="M4484.047 362.85c1.49 39.539 4.177 78.482 8.501 116.671-99.073 2.689-197.991 9.698-296.913 21.184-2.835 31.78-4.623 63.114-5.373 94.295 35.363-7.007 69.679-14.473 102.802-22.236 2.986-4.927 6.274-13.431 9.698-25.361 39.539 15.518 77.436 29.243 113.397 41.178-32.527 118.015-60.428 228.432-83.705 330.927-34.614-9.251-70.719-17.903-108.324-26.553 0-0.595 0-1.040 0-1.040-103.846 7.759-211.562 21.184-323.324 40.435-3.43-33.273-7.462-65.952-11.637-97.582 12.683-1.49 24.769-2.835 35.956-4.329-14.025-59.388-27.755-122.043-41.178-187.696 38.642-9.251 76.841-19.395 114.288-30.734 9.251 72.21 23.127 140.249 41.477 204.703 70.719-9.251 138.608-17.011 203.663-23.426 7.759-40.278 14.775-77.731 21.184-112.35-68.631 11.934-144.281 25.812-226.939 41.328-4.927-27.598-11.338-58.34-19.097-92.209 16.26-3.584 31.482-7.007 45.654-10.588 1.49-33.868 3.43-68.631 6.274-103.995-80.419 10.588-162.329 23.724-244.991 39.389 0-39.686-2.986-77.589-9.402-113.543 86.091-13.579 174.418-25.516 264.983-36.252 5.069-39.389 10.588-79.375 17.011-119.661-36.106 19.097-71.764 37.45-107.127 55.055-23.876-34.464-48.346-68.929-73.108-102.649 124.435-48.938 246.33-109.366 365.849-181.43 19.69 33.868 43.122 65.349 69.83 94.295-66.391 35.51-131.298 69.679-195.009 102.957l71.167 8.352c-9.251 42.524-16.711 84.895-22.384 127.419 91.31-10 183.372-18.801 276.767-26.553z" p-id="32197" fill="#ffffff"></path><path d="M3723.712 46.844c49.532 51.62 96.833 104.297 142.185 158.010-31.181 25.516-63.413 54.46-96.53 86.985-45.956-54.46-91.61-107.127-136.821-158.156 31.181-28.201 61.618-57.143 91.159-86.832z" p-id="32198" fill="#ffffff"></path><path d="M3604.059 297.054l125.034 17.011c-7.759 73.556-11.637 153.674-11.637 240.809l-124.138-10.741c0.751-74.154 4.329-156.508 10.741-247.077z" p-id="32199" fill="#ffffff"></path><path d="M3729.092 584.419c35.213 19.843 72.805 38.194 112.35 55.055-57.891 123.841-116.977 239.472-176.951 346.748-36.85-22.527-73.708-44.468-110.411-65.645 61.465-108.171 119.808-220.222 175.009-336.151z" p-id="32200" fill="#ffffff"></path><path d="M2884.904 230.359c34.767 18.95 71.167 36.701 109.366 52.967-18.5 36.701-36.106 72.364-53.115 106.976 45.956-11.934 91.31-24.318 135.773-37.154 5.666-98.775 12.683-199.483 21.184-302.134l131.597 17.011c-8.501 81.166-15.664 163.972-21.335 248.125 51.62-15.664 101.759-31.181 150.546-46.7 12.837 44.018 23.724 84.45 32.829 121.898-64.158 18.5-128.611 36.85-192.914 55.211-1.343 34.614-2.835 69.378-4.329 103.846 42.524-12.528 84.153-24.915 125.327-36.999 10.442 42.374 21.783 82.658 33.868 120.854-55.211 14.775-109.515 29.69-163.379 44.468-0.595 40.435-1.343 81.018-2.094 122.043 100.417-10 202.917-18.649 307.506-26.412 1.343 44.468 4.329 89.071 8.501 133.535-246.782 7.007-501.466 32.372-764.512 76.389 0-45.206-3.584-88.179-10.588-128.318 106.679-15.518 215.899-29.392 327.647-41.477 0-33.124 0.595-66.391 2.094-99.667-46.7 12.837-92.956 25.516-138.906 38.194-10.588-39.539-20.59-78.779-29.69-117.728 58.638-15.518 116.23-31.482 172.923-47.746 1.94-33.868 4.177-68.631 6.274-103.846-62.214 17.011-122.641 34.318-181.28 51.926-3.584-11.188-6.412-21.483-8.501-30.734-18.5 34.767-37.154 68.186-56.25 100.707-34.614-22.527-69.527-43.417-105.045-62.514 58.779-101.011 114.288-205.447 166.512-312.732z" p-id="32201" fill="#ffffff"></path><path d="M2298.091 505.937c51.62 62.966 100.859 126.82 147.559 192.020-29.69 23.279-59.678 50.131-90.117 80.571-48.191-65.802-95.934-129.506-143.235-190.975 29.094-26.112 57.594-53.419 85.792-81.611z" p-id="32202" fill="#ffffff"></path><path d="M2359.713 41.622c34.767 18.95 71.020 36.701 109.214 52.967-24.022 64.308-47.303 126.222-69.977 185.459 48.191-14.775 97.137-31.034 147.259-48.641 1.49-10 2.537-18.801 3.283-26.553 45.206 7.007 89.818 15.22 133.535 24.475-16.26 74.154-31.78 172.326-46.7 294.673-11.934 111.754-17.903 269.758-17.903 474.015-41.030 1.49-84.45 2.243-130.41 2.243 0-207.244 14.025-424.33 42.374-651.269-57.294 19.097-119.808 40.735-187.696 64.608-10.588 25.516-20.892 49.984-30.734 73.411-36.106-21.935-71.764-43.27-106.976-63.706 54.307-122.349 106.079-249.613 154.722-381.658z" p-id="32203" fill="#ffffff"></path><path d="M2038.485 77.577c30.434 26.112 59.388 51.926 86.832 77.436-54.46 63.555-110.26 128.764-167.553 195.155-28.201-28.201-56.548-56.25-84.748-83.851 55.803-62.966 111.005-125.778 165.463-188.741z" p-id="32204" fill="#ffffff"></path><path d="M2021.474 514.44c4.927 37.45 12.683 70.719 23.279 99.667-41.030 14.922-81.914 27.153-122.945 37.154-1.49 30.434-2.385 60.124-3.131 89.071 45.206-13.431 90.117-27.903 134.58-43.417 7.158-91.909 17.601-180.985 31.931-267.366-36.999 11.492-77.436 22.973-122.043 35.213 0-35.51-4.329-69.378-12.837-101.902 46.7-13.431 94.896-26.112 144.281-38.194 1.49-8.501 2.537-19.69 3.283-33.868 38.794 22.678 77.436 37.751 115.632 45.654-36.252 212.013-54.157 394.638-54.157 548.015h-115.632c0.751-24.022 1.49-46.998 2.243-68.929-86.391 26.256-172.475 52.669-258.866 79.668-9.251-35.51-18.203-70.719-27.457-106.079 16.26-5.069 31.931-9.847 47.594-14.775 1.343-130.847 11.040-264.085 28.799-399.865 38.194 2.835 74.45 6.412 109.069 10.588-7.007 54.46-12.683 107.874-17.011 160.095 31.78-9.251 62.966-19.395 93.403-30.734z" p-id="32205" fill="#ffffff"></path><path d="M1425.119 429.545c5.666 43.866 14.025 82.81 25.516 116.822-65.049 17.454-130.847 33.124-197.242 46.553-1.49 44.614-2.243 88.331-2.243 131.443 84.153-16.26 167.252-32.975 249.169-49.685 2.986-133.086 7.462-269.606 13.724-409.412-64.898 19.097-136.967 41.926-216.194 68.929-6.274-35.956-15.962-75.645-28.649-118.767 82.81-20.59 169.494-46.251 259.91-77.436 1.343-10.588 2.689-19.991 4.177-28.498 45.956 8.955 90.117 18.95 132.486 29.539-8.501 73.556-17.153 171.129-26.412 292.735-7.759 110.859-11.786 267.813-11.786 470.88-40.88 1.191-83.999 1.94-129.209 1.94v-106.079c-130.102 24.172-259.161 48.938-387.178 74.45-10.588-38.941-20.74-78.185-30.734-117.863 14.922-2.835 28.942-5.219 42.374-7.316 0.751-167.696 7.462-337.637 20.294-509.973 43.714 2.689 86.091 7.007 127.264 12.528-5.666 75.050-10.442 149.2-13.873 222.607 56.548-11.934 112.795-26.412 168.598-43.417z" p-id="32206" fill="#ffffff"></path><path d="M573.771 487.884c10 67.89 21.783 134.134 35.213 198.288 25.361-7.007 50.43-13.724 75.201-20.14 0-34.614 1.787-66.99 5.219-97.431-24.022 10.442-48.191 23.279-73.108 38.194-8.501-28.498-18.055-58.185-28.498-89.071 42.374-11.492 83.999-26.553 125.034-45.654 1.49-12.083 2.835-23.279 4.177-34.017 35.51 18.5 67.89 31.482 97.734 39.244-21.335 82.81-34.464 172.178-39.244 268.266-48.191 0-98.019 7.007-149.5 21.335 1.191 7.007 2.689 13.724 4.177 20.14l-100.859 40.137c-18.95-101.011-37.751-201.723-56.095-301.99l100.558-37.3z" p-id="32207" fill="#ffffff"></path><path d="M635.389 54.305c38.941 14.025 77.135 29.994 114.582 47.746-23.426 58.638-46.7 116.522-70.127 173.824 64.457-18.354 130.553-38.794 198.439-61.465 1.343-9.251 2.835-18.055 4.329-26.553 44.468 8.501 88.331 18.055 131.298 28.498-16.26 75.201-32.222 173.67-47.746 296.017-11.934 112.35-17.903 270.357-17.903 473.868-41.030 2.243-84.45 3.283-130.553 3.283 0-206.495 15.22-422.387 45.654-647.831-73.411 21.184-153.825 45.504-240.663 73.108-9.251 23.279-18.801 45.956-28.649 67.89-38.194-13.431-77.436-27.598-117.728-42.374 58.043-128.016 111.005-256.628 159.050-385.985z" p-id="32208" fill="#ffffff"></path><path d="M457.245 60.57c29.69 28.201 62.667 55.503 98.622 81.611-46.7 49.532-94 97.873-142.038 145.325 2.094 5.666 4.623 11.786 7.462 18.055 9.1 33.124 14.473 76.389 15.962 129.506 12.683 11.188 25.661 21.483 39.090 30.586-14.177 17.601-28.348 34.318-42.374 49.838-17.748 167.696-48.191 333.766-91.159 498.481-43.866-14.177-86.236-28.051-127.264-41.477 26.704-93.254 50.876-190.235 72.067-290.496-38.046 40.278-76.54 79.077-115.481 116.522-29.69-25.212-61.618-54.307-95.638-86.832 86.391-74.154 164.875-154.126 235.441-239.617 0.751-5.818 1.191-10.588 1.191-14.775 0-26.256-1.191-49.685-3.283-70.127-35.363 33.124-71.020 65.802-106.976 97.582-29.69-25.516-62.214-55.211-97.582-89.071 52.367-40.278 101.308-81.166 147.411-122.945-31.931-33.868-69.378-65.349-112.505-94.295 24.172-29.243 49.086-61.919 75.346-98.622 57.891 47.143 100.116 82.958 126.074 106.83 41.178-41.477 79.668-83.553 115.632-126.074z" p-id="32209" fill="#ffffff"></path></svg>